<?xml version="1.0" standalone="no"?>
<!DOCTYPE svg PUBLIC "-//W3C//DTD SVG 20010904//EN"
 "http://www.w3.org/TR/2001/REC-SVG-20010904/DTD/svg10.dtd">
<svg version="1.0" xmlns="http://www.w3.org/2000/svg"
 width="1191.000000pt" height="1191.000000pt" viewBox="0 0 1191.000000 1191.000000"
 preserveAspectRatio="xMidYMid meet">
<metadata>
Created by potrace 1.11, written by Peter Selinger 2001-2013
</metadata>
<g transform="translate(0.000000,1191.000000) scale(0.100000,-0.100000)"
fill="#000000" stroke="none">
<path d="M7457 9484 c-1 -1 -51 -5 -112 -8 -60 -4 -123 -8 -140 -10 -16 -2
-55 -7 -85 -10 -30 -3 -75 -8 -99 -11 -70 -7 -216 -29 -271 -40 -13 -2 -42 -7
-65 -10 -22 -4 -56 -10 -75 -15 -19 -5 -51 -11 -70 -15 -62 -10 -74 -13 -128
-25 -30 -7 -61 -13 -70 -15 -9 -2 -17 -4 -17 -5 0 -1 -14 -4 -60 -13 -11 -2
-40 -9 -65 -16 -25 -7 -52 -15 -60 -17 -8 -1 -46 -12 -85 -24 -38 -12 -77 -23
-85 -25 -19 -4 -218 -73 -245 -84 -30 -13 -61 -25 -175 -71 -58 -23 -112 -46
-120 -51 -8 -5 -22 -12 -30 -15 -35 -13 -321 -157 -385 -194 -38 -22 -82 -46
-97 -52 -16 -7 -28 -16 -28 -20 0 -4 -4 -8 -9 -8 -8 0 -200 -116 -226 -137 -6
-4 -76 -52 -155 -106 -160 -108 -237 -162 -260 -180 -8 -7 -53 -41 -100 -77
-90 -68 -92 -70 -128 -99 -13 -11 -42 -34 -64 -53 -74 -59 -209 -174 -302
-258 -81 -72 -426 -419 -486 -489 -30 -34 -66 -76 -80 -91 -14 -15 -41 -47
-59 -70 -19 -23 -40 -48 -46 -54 -6 -6 -16 -18 -21 -27 -5 -9 -24 -34 -42 -55
-54 -64 -179 -241 -256 -364 -77 -121 -103 -167 -168 -290 -22 -41 -43 -79
-46 -85 -4 -5 -7 -12 -8 -15 -2 -14 -40 -85 -46 -88 -5 -2 -8 -10 -8 -18 0 -8
-7 -26 -16 -39 -9 -14 -12 -25 -8 -25 5 0 4 -4 -2 -8 -6 -4 -26 -41 -44 -82
-37 -86 -61 -140 -91 -207 -28 -62 -126 -295 -149 -353 -9 -25 -36 -94 -60
-155 -23 -60 -48 -123 -55 -140 -6 -16 -22 -59 -35 -95 -23 -69 -30 -87 -50
-135 -14 -34 -69 -193 -75 -215 -2 -8 -8 -27 -13 -41 -6 -14 -13 -41 -16 -60
-3 -19 -8 -45 -11 -59 -3 -14 -7 -43 -10 -65 -5 -42 -12 -80 -15 -80 -1 0 -3
-11 -5 -25 -2 -25 -11 -77 -19 -116 -6 -28 -16 -91 -21 -131 -3 -18 -9 -52
-14 -75 -6 -23 -8 -45 -5 -49 2 -4 0 -10 -4 -13 -5 -3 -9 -20 -10 -37 0 -17
-4 -35 -9 -39 -4 -4 -51 -22 -103 -40 -52 -18 -108 -38 -125 -45 -16 -7 -45
-19 -63 -26 -17 -8 -32 -17 -32 -21 0 -5 -9 -8 -19 -8 -11 0 -21 -3 -23 -7 -1
-5 -23 -19 -48 -32 -25 -14 -89 -54 -143 -90 -54 -36 -106 -70 -115 -76 -9 -5
-19 -13 -22 -16 -14 -16 -159 -119 -189 -134 -49 -25 -119 -44 -182 -50 -260
-24 -366 -21 -430 11 l-27 13 3 -127 c2 -141 9 -166 72 -249 76 -101 148 -175
188 -193 72 -33 253 -44 425 -25 112 11 121 13 170 20 25 4 56 8 70 10 39 5
102 15 135 22 29 5 73 12 125 18 14 1 25 3 25 4 0 1 14 4 30 6 17 2 45 7 63
10 19 4 32 3 29 -2 -3 -4 -8 -24 -11 -43 -3 -19 -12 -58 -19 -86 -16 -61 -12
-68 53 -104 72 -40 234 -37 330 5 3 2 16 6 30 11 71 22 179 88 228 140 28 31
52 61 52 68 0 6 7 23 14 38 19 35 33 114 39 217 2 34 3 35 120 82 64 26 117
44 117 40 0 -3 4 -1 8 4 4 6 66 37 137 69 72 33 165 76 207 97 42 20 79 35 82
31 3 -3 6 0 6 6 0 6 10 14 23 18 41 13 417 192 427 203 3 3 15 12 28 19 12 6
32 18 45 25 12 6 24 14 27 17 8 8 44 30 66 39 11 5 41 23 66 40 25 17 51 31
56 31 6 0 15 6 19 13 4 7 19 18 33 25 14 7 37 20 51 30 15 9 80 48 145 86 299
174 334 201 644 506 276 271 363 327 542 347 26 3 63 0 83 -7 37 -12 100 -68
149 -133 33 -43 71 -66 101 -61 11 1 72 28 136 59 105 51 124 57 180 57 74 0
129 -10 129 -23 0 -5 5 -9 12 -9 21 0 76 -69 81 -103 6 -34 4 -88 -9 -202 -12
-110 -8 -261 11 -352 5 -22 14 -144 20 -258 18 -356 36 -403 177 -456 79 -30
149 -30 201 0 48 27 88 53 104 66 21 17 36 29 88 65 151 105 314 289 462 522
59 92 123 216 123 237 0 6 7 30 14 53 14 41 23 83 31 139 6 46 34 130 55 164
41 67 114 80 330 59 141 -13 282 -10 355 9 73 19 111 66 167 200 34 84 144
278 160 285 5 2 8 10 8 17 0 20 99 115 121 115 10 0 19 4 19 9 0 5 15 12 33
15 62 14 82 18 94 20 7 1 15 5 19 9 12 11 43 -13 60 -46 76 -149 210 -291 417
-442 37 -27 67 -52 67 -56 0 -4 9 -11 20 -14 11 -4 31 -16 43 -29 12 -12 31
-28 43 -36 22 -16 103 -85 158 -134 17 -15 117 -110 221 -211 105 -100 209
-198 232 -218 23 -19 49 -41 56 -48 8 -8 27 -23 43 -34 15 -11 40 -30 55 -42
15 -13 31 -23 36 -23 4 0 14 -9 21 -20 7 -11 16 -20 21 -20 8 0 132 -77 156
-97 26 -22 264 -128 310 -138 6 -2 35 -10 65 -19 30 -10 66 -20 80 -22 41 -8
173 -41 231 -58 70 -21 136 -60 196 -116 26 -25 71 -61 98 -80 28 -19 52 -38
55 -41 5 -7 141 -96 173 -114 35 -20 273 -169 302 -190 17 -12 43 -27 58 -35
24 -12 30 -12 37 0 6 8 10 23 11 33 2 18 5 35 9 40 1 1 3 10 5 20 4 24 53 124
75 157 23 33 48 119 44 148 -4 22 -47 96 -69 118 -7 7 -18 26 -25 43 -7 17
-16 31 -21 31 -5 0 -9 7 -9 15 0 8 -4 15 -10 15 -5 0 -10 4 -10 9 0 13 -82
155 -92 159 -4 2 -8 8 -8 14 0 23 -113 146 -200 216 -25 21 -47 39 -50 42 -6
6 -70 51 -160 111 -36 24 -69 48 -75 52 -33 26 -310 207 -317 207 -4 0 -8 4
-8 8 0 5 -19 19 -42 32 -24 13 -45 26 -48 29 -3 4 -59 42 -124 86 -141 94
-191 142 -269 256 -41 61 -111 136 -244 265 -256 246 -274 263 -498 479 -108
105 -232 223 -274 264 -176 169 -545 527 -692 671 -306 299 -385 370 -414 370
-7 0 -15 5 -17 11 -9 27 -140 29 -245 4 -13 -3 -33 -7 -45 -10 -12 -2 -44 -12
-72 -22 -28 -9 -54 -16 -58 -15 -3 1 -12 -5 -18 -13 -7 -8 -19 -15 -26 -15
-12 0 -124 -76 -169 -113 -8 -7 -104 -78 -225 -167 -14 -10 -75 -56 -137 -101
-62 -46 -122 -91 -134 -99 -12 -8 -29 -22 -38 -30 -9 -8 -50 -36 -91 -62 -41
-26 -80 -52 -87 -58 -7 -5 -14 -10 -16 -10 -3 0 -22 -8 -43 -17 -45 -19 -42
-18 -119 -37 -84 -21 -153 -28 -285 -26 -99 1 -225 7 -225 10 0 1 -29 3 -65 5
-95 7 -132 14 -155 31 -71 52 -161 106 -232 139 -76 35 -88 45 -144 117 -75
97 -164 188 -183 188 -9 0 -21 -10 -27 -22 -24 -45 -97 -126 -290 -318 -128
-128 -213 -221 -245 -270 -27 -41 -51 -77 -54 -80 -14 -14 -50 -70 -50 -79 0
-5 -3 -11 -7 -13 -5 -1 -35 -43 -68 -93 -33 -49 -66 -97 -73 -105 -7 -8 -11
-17 -10 -20 2 -5 -22 -37 -50 -66 -7 -7 -13 -17 -14 -21 -1 -8 -43 -71 -134
-198 -24 -33 -47 -64 -51 -70 -5 -5 -17 -23 -27 -40 -11 -16 -23 -34 -28 -40
-5 -5 -40 -54 -78 -108 -37 -54 -75 -108 -84 -120 -9 -12 -46 -65 -82 -117
-36 -52 -72 -100 -80 -106 -8 -6 -14 -15 -14 -20 0 -24 -87 -73 -200 -113 -30
-11 -145 -54 -255 -96 -110 -42 -249 -95 -310 -117 -60 -22 -119 -44 -130 -49
-24 -11 -276 -100 -290 -103 -5 -1 -14 -4 -20 -7 -10 -6 -81 -31 -100 -35 -11
-2 -211 -75 -258 -93 -26 -10 -27 -10 -21 17 4 15 12 41 19 57 7 17 21 55 31
85 9 30 32 96 51 145 19 50 36 95 37 100 1 6 7 24 13 40 7 17 31 80 53 140 23
61 48 124 55 140 7 17 26 66 43 110 28 73 74 185 106 260 8 17 26 59 41 95 15
36 38 89 51 118 13 29 24 55 24 57 0 2 32 70 70 151 38 80 70 150 70 155 0 5
5 9 10 9 6 0 10 5 10 11 0 11 51 120 60 129 3 3 14 23 25 45 22 44 78 145 119
215 15 25 34 60 43 78 9 17 20 32 25 32 4 0 8 4 8 9 0 12 81 135 92 139 4 2 8
8 8 14 0 9 149 207 180 238 8 8 25 29 38 45 124 158 526 552 758 741 38 31 76
64 85 73 9 9 29 25 43 35 15 11 37 28 49 38 12 10 27 21 32 26 49 40 225 171
242 180 12 7 28 18 36 26 32 33 359 246 517 339 148 86 491 257 517 257 4 0
44 14 88 31 74 29 225 74 285 85 14 3 33 7 42 10 10 3 30 7 45 10 16 3 66 14
113 25 47 12 96 22 110 24 14 2 25 4 25 5 0 1 7 3 15 5 40 8 168 34 190 39 14
3 34 7 45 9 11 3 40 8 65 12 45 7 59 10 115 21 17 4 41 8 55 9 49 6 125 16
150 21 137 25 493 25 640 -2 19 -3 47 -7 63 -7 15 -1 27 -5 27 -8 0 -3 6 -6
13 -6 62 -3 252 -63 321 -102 57 -33 126 -97 126 -118 0 -7 3 -13 8 -13 20 0
54 -128 54 -209 0 -131 -36 -295 -68 -308 -8 -3 -14 -9 -14 -14 0 -5 -9 -18
-20 -29 -21 -21 -100 -73 -100 -65 0 2 -20 -4 -45 -15 -25 -11 -48 -19 -50
-19 -3 0 -18 -2 -33 -5 -79 -18 -135 -27 -182 -31 -19 -2 -66 -6 -105 -11 -38
-4 -114 -8 -167 -7 -78 1 -106 5 -142 22 -25 13 -47 30 -50 39 -5 14 -1 117 4
117 3 0 7 30 14 85 14 114 19 136 39 158 33 36 11 47 -96 46 -51 0 -123 -4
-162 -8 -38 -5 -85 -10 -103 -12 -18 -2 -41 -5 -50 -8 -9 -3 -35 -8 -57 -11
-22 -3 -69 -12 -105 -20 -36 -8 -78 -18 -93 -21 -38 -7 -158 -62 -179 -81 -10
-9 -21 -32 -24 -52 -4 -20 -10 -40 -14 -46 -21 -29 -102 -260 -116 -332 -2
-13 -7 -35 -10 -50 -12 -62 -12 -232 1 -288 28 -120 103 -224 215 -302 55 -37
142 -78 190 -88 3 -1 19 -4 35 -8 69 -17 269 -25 330 -13 39 7 100 17 135 21
19 3 46 7 60 10 14 3 35 8 48 10 12 3 32 7 45 10 12 2 33 7 47 10 53 11 68 15
150 35 47 11 117 30 155 42 39 12 72 22 75 23 60 16 97 29 108 37 6 6 12 8 12
5 0 -3 19 2 43 12 54 23 79 33 92 37 15 3 161 67 236 103 57 27 76 43 126 109
33 42 73 97 89 122 16 25 32 47 35 50 15 12 128 241 148 300 12 36 24 72 28
80 3 8 7 22 8 30 1 8 6 31 10 50 15 73 17 99 19 250 1 85 -1 165 -5 177 -5 13
-4 25 2 28 5 4 7 9 5 13 -2 4 -7 32 -11 62 -41 333 -212 544 -585 723 -63 30
-126 58 -140 61 -14 4 -34 11 -45 16 -28 12 -141 38 -200 46 -27 3 -59 8 -70
10 -60 12 -488 27 -498 18z"/>
</g>
</svg>
