<?xml version="1.0" encoding="utf-8"?>
<!-- Generator: Adobe Illustrator 18.0.0, SVG Export Plug-In . SVG Version: 6.00 Build 0)  -->
<!DOCTYPE svg PUBLIC "-//W3C//DTD SVG 1.1//EN" "http://www.w3.org/Graphics/SVG/1.1/DTD/svg11.dtd">
<svg version="1.1" id="Layer_1" xmlns="http://www.w3.org/2000/svg" xmlns:xlink="http://www.w3.org/1999/xlink" x="0px" y="0px"
	 viewBox="0 0 1190.6 841.9" enable-background="new 0 0 1190.6 841.9" xml:space="preserve">
<g id="Layer_3">
	<path fill="#891B23" d="M191,615.1c0,0,92.4-31.8,116.7-40.9c18.8-7,57.5-21.8,73.9-28.1c4.8-1.8,8.8-4.8,11.8-9.1l53.9-76.3
		l40.9-60.6c0,0,47-43.9,48.5-51.5c1.5-7.6,25.8,25.8,25.8,25.8c48.5,21.2,16.7,18.2,48.5,21.2c31.8,3.1,56.1,2.8,74.2-7.9
		c18.2-10.6,31.8-23.3,56.1-40.3c24.3-17,25.8-23,49.9-29.1c24.2-6.1,28.8-4.5,54.5,21.2c25.8,25.8,181.8,175.7,181.8,175.7
		s12.1,18.2,16.7,22.7c4.5,4.5,19.6,13.6,57.5,39.4c37.9,25.8,53,33.4,68.2,62.1c15.2,28.7,24.3,24.3,10.6,47
		c-13.7,22.7,1.5,30.3-24.3,13.6c-25.8-16.7-43.9-25.8-59-40.9c-15.1-15.1-47-9.1-86.4-33.4c-39.4-24.3-53.3-43.9-83.6-71.2
		c-30.3-27.2-47-33.4-63.7-54.5c-16.7-21.2-6-22.7-24.3-18.2c-18.2,4.5-18.2,12.1-30.3,30.3c-12.1,18.2-6,34.8-34.8,36.3
		c-28.8,1.5-47-7.6-56.1,3.1c-9.1,10.6-4.5,30.3-18.2,53c-13.6,22.7-33.4,48.5-51.5,60.6c-18.2,12.1-22.7,19.6-37.9,13.6
		c-15.1-6-16.7-9.1-18.2-31.8c-1.5-22.7-1.5-33.4-4.5-53c-3.1-19.6,6-37.9,0-47c-6-9.1-18.2-12.1-30.3-7.6
		c-12.1,4.5-21.2,13.6-27.2,9.1c-6-4.5-13.6-21.2-27.2-19.6c-13.6,1.5-22.7,4.5-40.9,21.2c-18.2,16.7-40.9,43.9-66.6,57.5
		c-25.8,13.6-59,37.9-83.3,48.5c-24.3,10.6-68.2,33.4-90.9,40.9c-22.7,7.6-54.5,25.8-83.3,30.3c-28.8,4.5-60.6,10.6-81.8,9.1
		s-19.6-3.1-31.8-16.7c-12-13.7-13.5-19.7-12-36.4c1.5-16.7-7.6-1.5,21.2-3.1c28.8-1.5,37.9-1.5,53-13.6
		c15.1-12.1,42.4-30.3,60.6-36.3C165.2,624.1,191,615.1,191,615.1z"/>
</g>
<g id="Layer_2">
	<path fill="#43723E" d="M141.1,744.4c3.9-3.9,36.3-193.8,36.3-193.8s44.5-133.2,88.7-202c44.4-68.7,114.7-136.8,203.5-193.7
		c87-56,155.9-68.7,181.7-74.1c58.4-12.1,136.9-20,180.2-1.5c71.2,30.3,68.8,67.5,68.8,112.1S860.2,280,860.2,280
		s-34.2,17.9-73.6,27.8c-55.8,13.9-91.8,20-120.2-10c-28.1-30,3.9-90.6,3.9-90.6s-8.2-12.1,48.5-20.3s36.3,3.9,36.3,3.9l-3.9,28.1
		c0,0-8.2,16.1,32.4,12.1c40.3-3.9,61.2-7.9,64.5-36.3c1.8-14.8,4.8-41.5-28.1-52.4c-59-19.6-109.1-8.2-197.8,12.1
		s-224.3,129.3-279.7,206C287,437,238.6,582.4,222.3,630.8c-16.1,48.5,12.1,93-28.1,113C153.1,764.3,141.1,744.4,141.1,744.4z"/>
</g>
</svg>
